<?xml version="1.0" encoding="utf-8"?>
<!-- Generator: Adobe Illustrator 22.1.0, SVG Export Plug-In . SVG Version: 6.00 Build 0)  -->
<svg version="1.1" id="Capa_1" xmlns="http://www.w3.org/2000/svg" xmlns:xlink="http://www.w3.org/1999/xlink" x="0px" y="0px"
	 viewBox="0 0 323.7 40" style="enable-background:new 0 0 323.7 40;" xml:space="preserve">
<style type="text/css">
	.st0{fill:#FFFFFF;}
	.st1{fill:none;stroke:#B0815F;stroke-width:4;stroke-miterlimit:10;}
	.st2{fill:#B0815F;}
	.st3{fill:#698D8A;}
	.st4{fill:#DDDDD5;}
	.st5{fill:none;stroke:#FFFFFF;stroke-miterlimit:10;}
	.st6{fill:none;}
	.st7{fill:#B2835F;}
	.st8{fill:#002345;}
	.st9{fill:#9C7018;}
	.st10{fill:#A3C5C4;}
	.st11{fill:#E5E5E5;}
	.st12{fill:#031428;}
	.st13{fill:#587180;}
	.st14{fill:#B1825F;}
	.st15{opacity:0.25;fill:#CAC4B8;}
	.st16{fill:#CAC4B8;}
	.st17{fill:none;stroke:#A29180;stroke-miterlimit:10;}
	.st18{fill:#233853;}
	.st19{fill:none;stroke:#FFFFFF;stroke-width:3;stroke-miterlimit:10;}
	.st20{fill:#95803A;}
	.st21{fill:#95803C;}
	.st22{fill:#0D1E32;}
	.st23{fill:#AF805F;}
	.st24{fill:none;stroke:#FFFFFF;stroke-width:2;stroke-miterlimit:10;}
	.st25{fill:none;stroke:#233853;stroke-width:2;stroke-miterlimit:10;}
	.st26{fill:none;stroke:#233853;stroke-miterlimit:10;}
	.st27{fill:#80329F;}
	.st28{fill:#03AB80;}
	.st29{fill:#E49300;}
	.st30{fill:#F2EFEB;}
	.st31{fill:#A29180;}
	.st32{fill:#B3845F;}
	.st33{fill:#80C042;}
	.st34{clip-path:url(#SVGID_88_);}
	.st35{clip-path:url(#SVGID_88_);fill:#587180;}
	.st36{clip-path:url(#SVGID_88_);fill:#95803A;}
	.st37{opacity:0.15;fill:#CAC4B8;}
	.st38{fill:none;stroke:#E5E5E5;stroke-width:3;stroke-miterlimit:10;}
	.st39{opacity:0.9;}
	.st40{opacity:0.5;}
	.st41{opacity:0.2;}
	.st42{fill:#4D97AB;}
	.st43{fill:#B0007C;}
	.st44{fill:#0B2E55;}
	.st45{fill:#B56B4B;}
	.st46{fill:#0B2E54;}
	.st47{fill:none;stroke:#B0007C;stroke-width:5;stroke-miterlimit:10;}
	.st48{fill:#0B2F71;}
	.st49{fill:#87B229;}
	.st50{filter:url(#Adobe_OpacityMaskFilter);}
	.st51{fill:#233752;}
	.st52{fill:url(#SVGID_137_);}
	.st53{opacity:0.1;}
	.st54{clip-path:url(#SVGID_140_);fill:url(#SVGID_141_);stroke:#E7031C;stroke-width:17;stroke-miterlimit:10;}
	.st55{clip-path:url(#SVGID_140_);fill:url(#SVGID_142_);stroke:#E7031C;stroke-width:17;stroke-miterlimit:10;}
	.st56{clip-path:url(#SVGID_140_);fill:url(#SVGID_143_);stroke:#E7031C;stroke-width:17;stroke-miterlimit:10;}
	.st57{clip-path:url(#SVGID_140_);fill:url(#SVGID_144_);stroke:#E7031C;stroke-width:17;stroke-miterlimit:10;}
	.st58{clip-path:url(#SVGID_140_);fill:url(#SVGID_145_);stroke:#E7031C;stroke-width:17;stroke-miterlimit:10;}
	.st59{clip-path:url(#SVGID_140_);fill:url(#SVGID_146_);stroke:#E7031C;stroke-width:17;stroke-miterlimit:10;}
	.st60{clip-path:url(#SVGID_140_);fill:url(#SVGID_147_);stroke:#E7031C;stroke-width:17;stroke-miterlimit:10;}
	.st61{clip-path:url(#SVGID_140_);fill:url(#SVGID_148_);stroke:#E7031C;stroke-width:17;stroke-miterlimit:10;}
	.st62{clip-path:url(#SVGID_140_);fill:url(#SVGID_149_);stroke:#E7031C;stroke-width:17;stroke-miterlimit:10;}
	.st63{clip-path:url(#SVGID_140_);fill:url(#SVGID_150_);stroke:#E7031C;stroke-width:17;stroke-miterlimit:10;}
	.st64{clip-path:url(#SVGID_140_);fill:url(#SVGID_151_);stroke:#E7031C;stroke-width:17;stroke-miterlimit:10;}
	.st65{clip-path:url(#SVGID_140_);fill:url(#SVGID_152_);stroke:#E7031C;stroke-width:17;stroke-miterlimit:10;}
	.st66{clip-path:url(#SVGID_140_);fill:url(#SVGID_153_);stroke:#E7031C;stroke-width:17;stroke-miterlimit:10;}
	.st67{clip-path:url(#SVGID_140_);fill:url(#SVGID_154_);stroke:#E7031C;stroke-width:17;stroke-miterlimit:10;}
	.st68{clip-path:url(#SVGID_140_);fill:url(#SVGID_155_);stroke:#E7031C;stroke-width:17;stroke-miterlimit:10;}
	.st69{clip-path:url(#SVGID_140_);fill:url(#SVGID_156_);stroke:#E7031C;stroke-width:17;stroke-miterlimit:10;}
	.st70{clip-path:url(#SVGID_140_);fill:url(#SVGID_157_);stroke:#E7031C;stroke-width:17;stroke-miterlimit:10;}
	.st71{clip-path:url(#SVGID_140_);fill:url(#SVGID_158_);stroke:#E7031C;stroke-width:17;stroke-miterlimit:10;}
	.st72{clip-path:url(#SVGID_140_);fill:url(#SVGID_159_);stroke:#E7031C;stroke-width:17;stroke-miterlimit:10;}
	.st73{clip-path:url(#SVGID_140_);fill:url(#SVGID_160_);stroke:#E7031C;stroke-width:17;stroke-miterlimit:10;}
	.st74{clip-path:url(#SVGID_140_);fill:url(#SVGID_161_);stroke:#E7031C;stroke-width:17;stroke-miterlimit:10;}
	.st75{fill:none;stroke:#0B2E55;stroke-width:4;stroke-miterlimit:10;}
	.st76{opacity:0.28;}
	.st77{fill:url(#SVGID_166_);}
	.st78{clip-path:url(#SVGID_169_);fill:url(#SVGID_170_);stroke:#E7031C;stroke-width:17;stroke-miterlimit:10;}
	.st79{clip-path:url(#SVGID_169_);fill:url(#SVGID_171_);stroke:#E7031C;stroke-width:17;stroke-miterlimit:10;}
	.st80{clip-path:url(#SVGID_169_);fill:url(#SVGID_172_);stroke:#E7031C;stroke-width:17;stroke-miterlimit:10;}
	.st81{clip-path:url(#SVGID_169_);fill:url(#SVGID_173_);stroke:#E7031C;stroke-width:17;stroke-miterlimit:10;}
	.st82{clip-path:url(#SVGID_169_);fill:url(#SVGID_174_);stroke:#E7031C;stroke-width:17;stroke-miterlimit:10;}
	.st83{clip-path:url(#SVGID_169_);fill:url(#SVGID_175_);stroke:#E7031C;stroke-width:17;stroke-miterlimit:10;}
	.st84{clip-path:url(#SVGID_169_);fill:url(#SVGID_176_);stroke:#E7031C;stroke-width:17;stroke-miterlimit:10;}
	.st85{clip-path:url(#SVGID_169_);fill:url(#SVGID_177_);stroke:#E7031C;stroke-width:17;stroke-miterlimit:10;}
	.st86{clip-path:url(#SVGID_169_);fill:url(#SVGID_178_);stroke:#E7031C;stroke-width:17;stroke-miterlimit:10;}
	.st87{clip-path:url(#SVGID_169_);fill:url(#SVGID_179_);stroke:#E7031C;stroke-width:17;stroke-miterlimit:10;}
	.st88{clip-path:url(#SVGID_169_);fill:url(#SVGID_180_);stroke:#E7031C;stroke-width:17;stroke-miterlimit:10;}
	.st89{clip-path:url(#SVGID_169_);fill:url(#SVGID_181_);stroke:#E7031C;stroke-width:17;stroke-miterlimit:10;}
	.st90{clip-path:url(#SVGID_169_);fill:url(#SVGID_182_);stroke:#E7031C;stroke-width:17;stroke-miterlimit:10;}
	.st91{clip-path:url(#SVGID_169_);fill:url(#SVGID_183_);stroke:#E7031C;stroke-width:17;stroke-miterlimit:10;}
	.st92{clip-path:url(#SVGID_169_);fill:url(#SVGID_184_);stroke:#E7031C;stroke-width:17;stroke-miterlimit:10;}
	.st93{clip-path:url(#SVGID_169_);fill:url(#SVGID_185_);stroke:#E7031C;stroke-width:17;stroke-miterlimit:10;}
	.st94{clip-path:url(#SVGID_169_);fill:url(#SVGID_186_);stroke:#E7031C;stroke-width:17;stroke-miterlimit:10;}
	.st95{clip-path:url(#SVGID_169_);fill:url(#SVGID_187_);stroke:#E7031C;stroke-width:17;stroke-miterlimit:10;}
	.st96{clip-path:url(#SVGID_169_);fill:url(#SVGID_188_);stroke:#E7031C;stroke-width:17;stroke-miterlimit:10;}
	.st97{clip-path:url(#SVGID_169_);fill:url(#SVGID_189_);stroke:#E7031C;stroke-width:17;stroke-miterlimit:10;}
	.st98{clip-path:url(#SVGID_169_);fill:url(#SVGID_190_);stroke:#E7031C;stroke-width:17;stroke-miterlimit:10;}
	.st99{clip-path:url(#SVGID_169_);fill:url(#SVGID_191_);stroke:#E7031C;stroke-width:17;stroke-miterlimit:10;}
	.st100{fill:url(#SVGID_192_);}
	.st101{clip-path:url(#SVGID_195_);fill:url(#SVGID_196_);stroke:#E7031C;stroke-width:17;stroke-miterlimit:10;}
	.st102{clip-path:url(#SVGID_195_);fill:url(#SVGID_197_);stroke:#E7031C;stroke-width:17;stroke-miterlimit:10;}
	.st103{clip-path:url(#SVGID_195_);fill:url(#SVGID_198_);stroke:#E7031C;stroke-width:17;stroke-miterlimit:10;}
	.st104{clip-path:url(#SVGID_195_);fill:url(#SVGID_199_);stroke:#E7031C;stroke-width:17;stroke-miterlimit:10;}
	.st105{clip-path:url(#SVGID_195_);fill:url(#SVGID_200_);stroke:#E7031C;stroke-width:17;stroke-miterlimit:10;}
	.st106{clip-path:url(#SVGID_195_);fill:url(#SVGID_201_);stroke:#E7031C;stroke-width:17;stroke-miterlimit:10;}
	.st107{clip-path:url(#SVGID_195_);fill:url(#SVGID_202_);stroke:#E7031C;stroke-width:17;stroke-miterlimit:10;}
	.st108{clip-path:url(#SVGID_195_);fill:url(#SVGID_203_);stroke:#E7031C;stroke-width:17;stroke-miterlimit:10;}
	.st109{clip-path:url(#SVGID_195_);fill:url(#SVGID_204_);stroke:#E7031C;stroke-width:17;stroke-miterlimit:10;}
	.st110{clip-path:url(#SVGID_195_);fill:url(#SVGID_205_);stroke:#E7031C;stroke-width:17;stroke-miterlimit:10;}
	.st111{clip-path:url(#SVGID_195_);fill:url(#SVGID_206_);stroke:#E7031C;stroke-width:17;stroke-miterlimit:10;}
	.st112{clip-path:url(#SVGID_195_);fill:url(#SVGID_207_);stroke:#E7031C;stroke-width:17;stroke-miterlimit:10;}
	.st113{clip-path:url(#SVGID_195_);fill:url(#SVGID_208_);stroke:#E7031C;stroke-width:17;stroke-miterlimit:10;}
	.st114{clip-path:url(#SVGID_195_);fill:url(#SVGID_209_);stroke:#E7031C;stroke-width:17;stroke-miterlimit:10;}
	.st115{clip-path:url(#SVGID_195_);fill:url(#SVGID_210_);stroke:#E7031C;stroke-width:17;stroke-miterlimit:10;}
	.st116{clip-path:url(#SVGID_195_);fill:url(#SVGID_211_);stroke:#E7031C;stroke-width:17;stroke-miterlimit:10;}
	.st117{clip-path:url(#SVGID_195_);fill:url(#SVGID_212_);stroke:#E7031C;stroke-width:17;stroke-miterlimit:10;}
	.st118{clip-path:url(#SVGID_195_);fill:url(#SVGID_213_);stroke:#E7031C;stroke-width:17;stroke-miterlimit:10;}
	.st119{clip-path:url(#SVGID_195_);fill:url(#SVGID_214_);stroke:#E7031C;stroke-width:17;stroke-miterlimit:10;}
	.st120{clip-path:url(#SVGID_195_);fill:url(#SVGID_215_);stroke:#E7031C;stroke-width:17;stroke-miterlimit:10;}
	.st121{clip-path:url(#SVGID_195_);fill:url(#SVGID_216_);stroke:#E7031C;stroke-width:17;stroke-miterlimit:10;}
	.st122{fill:url(#SVGID_217_);}
	.st123{clip-path:url(#SVGID_220_);fill:url(#SVGID_221_);stroke:#E7031C;stroke-width:17;stroke-miterlimit:10;}
	.st124{clip-path:url(#SVGID_220_);fill:url(#SVGID_222_);stroke:#E7031C;stroke-width:17;stroke-miterlimit:10;}
	.st125{clip-path:url(#SVGID_220_);fill:url(#SVGID_223_);stroke:#E7031C;stroke-width:17;stroke-miterlimit:10;}
	.st126{clip-path:url(#SVGID_220_);fill:url(#SVGID_224_);stroke:#E7031C;stroke-width:17;stroke-miterlimit:10;}
	.st127{clip-path:url(#SVGID_220_);fill:url(#SVGID_225_);stroke:#E7031C;stroke-width:17;stroke-miterlimit:10;}
	.st128{clip-path:url(#SVGID_220_);fill:url(#SVGID_226_);stroke:#E7031C;stroke-width:17;stroke-miterlimit:10;}
	.st129{clip-path:url(#SVGID_220_);fill:url(#SVGID_227_);stroke:#E7031C;stroke-width:17;stroke-miterlimit:10;}
	.st130{clip-path:url(#SVGID_220_);fill:url(#SVGID_228_);stroke:#E7031C;stroke-width:17;stroke-miterlimit:10;}
	.st131{clip-path:url(#SVGID_220_);fill:url(#SVGID_229_);stroke:#E7031C;stroke-width:17;stroke-miterlimit:10;}
	.st132{clip-path:url(#SVGID_220_);fill:url(#SVGID_230_);stroke:#E7031C;stroke-width:17;stroke-miterlimit:10;}
	.st133{clip-path:url(#SVGID_220_);fill:url(#SVGID_231_);stroke:#E7031C;stroke-width:17;stroke-miterlimit:10;}
	.st134{clip-path:url(#SVGID_220_);fill:url(#SVGID_232_);stroke:#E7031C;stroke-width:17;stroke-miterlimit:10;}
	.st135{clip-path:url(#SVGID_220_);fill:url(#SVGID_233_);stroke:#E7031C;stroke-width:17;stroke-miterlimit:10;}
	.st136{clip-path:url(#SVGID_220_);fill:url(#SVGID_234_);stroke:#E7031C;stroke-width:17;stroke-miterlimit:10;}
	.st137{clip-path:url(#SVGID_220_);fill:url(#SVGID_235_);stroke:#E7031C;stroke-width:17;stroke-miterlimit:10;}
	.st138{clip-path:url(#SVGID_220_);fill:url(#SVGID_236_);stroke:#E7031C;stroke-width:17;stroke-miterlimit:10;}
	.st139{clip-path:url(#SVGID_220_);fill:url(#SVGID_237_);stroke:#E7031C;stroke-width:17;stroke-miterlimit:10;}
	.st140{clip-path:url(#SVGID_220_);fill:url(#SVGID_238_);stroke:#E7031C;stroke-width:17;stroke-miterlimit:10;}
	.st141{clip-path:url(#SVGID_220_);fill:url(#SVGID_239_);stroke:#E7031C;stroke-width:17;stroke-miterlimit:10;}
	.st142{clip-path:url(#SVGID_220_);fill:url(#SVGID_240_);stroke:#E7031C;stroke-width:17;stroke-miterlimit:10;}
	.st143{clip-path:url(#SVGID_220_);fill:url(#SVGID_241_);stroke:#E7031C;stroke-width:17;stroke-miterlimit:10;}
	.st144{fill:url(#SVGID_242_);}
	.st145{clip-path:url(#SVGID_245_);fill:url(#SVGID_246_);stroke:#E7031C;stroke-width:17;stroke-miterlimit:10;}
	.st146{clip-path:url(#SVGID_245_);fill:url(#SVGID_247_);stroke:#E7031C;stroke-width:17;stroke-miterlimit:10;}
	.st147{clip-path:url(#SVGID_245_);fill:url(#SVGID_248_);stroke:#E7031C;stroke-width:17;stroke-miterlimit:10;}
	.st148{clip-path:url(#SVGID_245_);fill:url(#SVGID_249_);stroke:#E7031C;stroke-width:17;stroke-miterlimit:10;}
	.st149{clip-path:url(#SVGID_245_);fill:url(#SVGID_250_);stroke:#E7031C;stroke-width:17;stroke-miterlimit:10;}
	.st150{clip-path:url(#SVGID_245_);fill:url(#SVGID_251_);stroke:#E7031C;stroke-width:17;stroke-miterlimit:10;}
	.st151{clip-path:url(#SVGID_245_);fill:url(#SVGID_252_);stroke:#E7031C;stroke-width:17;stroke-miterlimit:10;}
	.st152{clip-path:url(#SVGID_245_);fill:url(#SVGID_253_);stroke:#E7031C;stroke-width:17;stroke-miterlimit:10;}
	.st153{clip-path:url(#SVGID_245_);fill:url(#SVGID_254_);stroke:#E7031C;stroke-width:17;stroke-miterlimit:10;}
	.st154{clip-path:url(#SVGID_245_);fill:url(#SVGID_255_);stroke:#E7031C;stroke-width:17;stroke-miterlimit:10;}
	.st155{clip-path:url(#SVGID_245_);fill:url(#SVGID_256_);stroke:#E7031C;stroke-width:17;stroke-miterlimit:10;}
	.st156{clip-path:url(#SVGID_245_);fill:url(#SVGID_257_);stroke:#E7031C;stroke-width:17;stroke-miterlimit:10;}
	.st157{clip-path:url(#SVGID_245_);fill:url(#SVGID_258_);stroke:#E7031C;stroke-width:17;stroke-miterlimit:10;}
	.st158{clip-path:url(#SVGID_245_);fill:url(#SVGID_259_);stroke:#E7031C;stroke-width:17;stroke-miterlimit:10;}
	.st159{clip-path:url(#SVGID_245_);fill:url(#SVGID_260_);stroke:#E7031C;stroke-width:17;stroke-miterlimit:10;}
	.st160{clip-path:url(#SVGID_245_);fill:url(#SVGID_261_);stroke:#E7031C;stroke-width:17;stroke-miterlimit:10;}
	.st161{clip-path:url(#SVGID_245_);fill:url(#SVGID_262_);stroke:#E7031C;stroke-width:17;stroke-miterlimit:10;}
	.st162{clip-path:url(#SVGID_245_);fill:url(#SVGID_263_);stroke:#E7031C;stroke-width:17;stroke-miterlimit:10;}
	.st163{clip-path:url(#SVGID_245_);fill:url(#SVGID_264_);stroke:#E7031C;stroke-width:17;stroke-miterlimit:10;}
	.st164{clip-path:url(#SVGID_245_);fill:url(#SVGID_265_);stroke:#E7031C;stroke-width:17;stroke-miterlimit:10;}
	.st165{clip-path:url(#SVGID_245_);fill:url(#SVGID_266_);stroke:#E7031C;stroke-width:17;stroke-miterlimit:10;}
	.st166{fill:url(#SVGID_267_);}
	.st167{clip-path:url(#SVGID_270_);fill:url(#SVGID_271_);stroke:#E7031C;stroke-width:17;stroke-miterlimit:10;}
	.st168{clip-path:url(#SVGID_270_);fill:url(#SVGID_272_);stroke:#E7031C;stroke-width:17;stroke-miterlimit:10;}
	.st169{clip-path:url(#SVGID_270_);fill:url(#SVGID_273_);stroke:#E7031C;stroke-width:17;stroke-miterlimit:10;}
	.st170{clip-path:url(#SVGID_270_);fill:url(#SVGID_274_);stroke:#E7031C;stroke-width:17;stroke-miterlimit:10;}
	.st171{clip-path:url(#SVGID_270_);fill:url(#SVGID_275_);stroke:#E7031C;stroke-width:17;stroke-miterlimit:10;}
	.st172{clip-path:url(#SVGID_270_);fill:url(#SVGID_276_);stroke:#E7031C;stroke-width:17;stroke-miterlimit:10;}
	.st173{clip-path:url(#SVGID_270_);fill:url(#SVGID_277_);stroke:#E7031C;stroke-width:17;stroke-miterlimit:10;}
	.st174{clip-path:url(#SVGID_270_);fill:url(#SVGID_278_);stroke:#E7031C;stroke-width:17;stroke-miterlimit:10;}
	.st175{clip-path:url(#SVGID_270_);fill:url(#SVGID_279_);stroke:#E7031C;stroke-width:17;stroke-miterlimit:10;}
	.st176{clip-path:url(#SVGID_270_);fill:url(#SVGID_280_);stroke:#E7031C;stroke-width:17;stroke-miterlimit:10;}
	.st177{clip-path:url(#SVGID_270_);fill:url(#SVGID_281_);stroke:#E7031C;stroke-width:17;stroke-miterlimit:10;}
	.st178{clip-path:url(#SVGID_270_);fill:url(#SVGID_282_);stroke:#E7031C;stroke-width:17;stroke-miterlimit:10;}
	.st179{clip-path:url(#SVGID_270_);fill:url(#SVGID_283_);stroke:#E7031C;stroke-width:17;stroke-miterlimit:10;}
	.st180{clip-path:url(#SVGID_270_);fill:url(#SVGID_284_);stroke:#E7031C;stroke-width:17;stroke-miterlimit:10;}
	.st181{clip-path:url(#SVGID_270_);fill:url(#SVGID_285_);stroke:#E7031C;stroke-width:17;stroke-miterlimit:10;}
	.st182{clip-path:url(#SVGID_270_);fill:url(#SVGID_286_);stroke:#E7031C;stroke-width:17;stroke-miterlimit:10;}
	.st183{clip-path:url(#SVGID_270_);fill:url(#SVGID_287_);stroke:#E7031C;stroke-width:17;stroke-miterlimit:10;}
	.st184{clip-path:url(#SVGID_270_);fill:url(#SVGID_288_);stroke:#E7031C;stroke-width:17;stroke-miterlimit:10;}
	.st185{clip-path:url(#SVGID_270_);fill:url(#SVGID_289_);stroke:#E7031C;stroke-width:17;stroke-miterlimit:10;}
	.st186{clip-path:url(#SVGID_270_);fill:url(#SVGID_290_);stroke:#E7031C;stroke-width:17;stroke-miterlimit:10;}
	.st187{clip-path:url(#SVGID_270_);fill:url(#SVGID_291_);stroke:#E7031C;stroke-width:17;stroke-miterlimit:10;}
	.st188{filter:url(#Adobe_OpacityMaskFilter_1_);}
	.st189{clip-path:url(#SVGID_299_);fill:none;stroke:#B0815F;stroke-miterlimit:10;}
	.st190{clip-path:url(#SVGID_299_);}
	.st191{clip-path:url(#SVGID_299_);fill:url(#SVGID_302_);}
	.st192{opacity:0.1;clip-path:url(#SVGID_299_);}
	.st193{clip-path:url(#SVGID_305_);fill:url(#SVGID_306_);stroke:#E7031C;stroke-width:17;stroke-miterlimit:10;}
	.st194{clip-path:url(#SVGID_305_);fill:url(#SVGID_307_);stroke:#E7031C;stroke-width:17;stroke-miterlimit:10;}
	.st195{clip-path:url(#SVGID_305_);fill:url(#SVGID_308_);stroke:#E7031C;stroke-width:17;stroke-miterlimit:10;}
	.st196{clip-path:url(#SVGID_305_);fill:url(#SVGID_309_);stroke:#E7031C;stroke-width:17;stroke-miterlimit:10;}
	.st197{clip-path:url(#SVGID_305_);fill:url(#SVGID_310_);stroke:#E7031C;stroke-width:17;stroke-miterlimit:10;}
	.st198{clip-path:url(#SVGID_305_);fill:url(#SVGID_311_);stroke:#E7031C;stroke-width:17;stroke-miterlimit:10;}
	.st199{clip-path:url(#SVGID_305_);fill:url(#SVGID_312_);stroke:#E7031C;stroke-width:17;stroke-miterlimit:10;}
	.st200{clip-path:url(#SVGID_305_);fill:url(#SVGID_313_);stroke:#E7031C;stroke-width:17;stroke-miterlimit:10;}
	.st201{clip-path:url(#SVGID_305_);fill:url(#SVGID_314_);stroke:#E7031C;stroke-width:17;stroke-miterlimit:10;}
	.st202{clip-path:url(#SVGID_305_);fill:url(#SVGID_315_);stroke:#E7031C;stroke-width:17;stroke-miterlimit:10;}
	.st203{clip-path:url(#SVGID_305_);fill:url(#SVGID_316_);stroke:#E7031C;stroke-width:17;stroke-miterlimit:10;}
	.st204{clip-path:url(#SVGID_305_);fill:url(#SVGID_317_);stroke:#E7031C;stroke-width:17;stroke-miterlimit:10;}
	.st205{clip-path:url(#SVGID_305_);fill:url(#SVGID_318_);stroke:#E7031C;stroke-width:17;stroke-miterlimit:10;}
	.st206{clip-path:url(#SVGID_305_);fill:url(#SVGID_319_);stroke:#E7031C;stroke-width:17;stroke-miterlimit:10;}
	.st207{clip-path:url(#SVGID_305_);fill:url(#SVGID_320_);stroke:#E7031C;stroke-width:17;stroke-miterlimit:10;}
	.st208{clip-path:url(#SVGID_305_);fill:url(#SVGID_321_);stroke:#E7031C;stroke-width:17;stroke-miterlimit:10;}
	.st209{clip-path:url(#SVGID_305_);fill:url(#SVGID_322_);stroke:#E7031C;stroke-width:17;stroke-miterlimit:10;}
	.st210{clip-path:url(#SVGID_305_);fill:url(#SVGID_323_);stroke:#E7031C;stroke-width:17;stroke-miterlimit:10;}
	.st211{clip-path:url(#SVGID_305_);fill:url(#SVGID_324_);stroke:#E7031C;stroke-width:17;stroke-miterlimit:10;}
	.st212{clip-path:url(#SVGID_305_);fill:url(#SVGID_325_);stroke:#E7031C;stroke-width:17;stroke-miterlimit:10;}
	.st213{clip-path:url(#SVGID_305_);fill:url(#SVGID_326_);stroke:#E7031C;stroke-width:17;stroke-miterlimit:10;}
	.st214{opacity:0.7;fill:#0B2E55;}
	.st215{opacity:0.7;fill:#FFFFFF;}
	.st216{fill:#ACC921;}
	.st217{clip-path:url(#SVGID_334_);}
	.st218{filter:url(#Adobe_OpacityMaskFilter_2_);}
</style>
<g id="Capa_1_22_">
	<g>
		<g>
			<path class="st8" d="M61.5,12.2v18.2h-5.1V12.2h-10V8.1h25.3v4.1H61.5z"/>
			<path class="st8" d="M80.6,30.3h-5.7V8.1h5.7V30.3z"/>
			<path class="st8" d="M262.7,8.1v22.3H257l-15.5-16.3v16.3h-5.6V8.1h5.7l15.5,16.3V8.1H262.7z"/>
			<path class="st8" d="M139.3,8.1v22.3h-5.7l-15.5-16.3v16.3h-5.6V8.1h5.7l15.4,16.3V8.1H139.3z"/>
			<path class="st8" d="M169.4,14.5v9.4c0,2.2-0.6,3.8-1.9,4.8c-1.3,1-4.2,1.6-7.2,1.6h-16.8V8.1h16.8c2.8,0,5.9,0.6,7.2,1.6
				C168.9,10.7,169.4,12.3,169.4,14.5z M159.4,12.2h-10.8v14.1h10.8c0.7,0,1.5,0,1.9-0.1c0.6-0.1,0.9-0.3,1.2-0.6
				c0.3-0.3,0.4-0.6,0.6-1c0.1-0.4,0.1-0.9,0.1-1.5v-7.3c0-0.6,0-1-0.1-1.5s-0.3-0.7-0.6-1c-0.3-0.3-0.7-0.4-1.2-0.6
				C160.9,12.3,160.4,12.2,159.4,12.2z"/>
			<path class="st8" d="M197.2,14.5v15.8h-5.1v-5.7H177v5.7h-5.1V14.5c0-2.2,0.6-3.8,1.9-4.8c1.2-1,3.2-1.6,6-1.6h9.7
				c2.8,0,4.8,0.6,6,1.6C196.8,10.7,197.2,12.3,197.2,14.5z M177,20.5h15.2c0-0.6,0-6-0.1-6.4s-0.3-0.7-0.6-1
				c-0.3-0.3-0.7-0.4-1.3-0.6c-0.6-0.1-1.3-0.1-2.2-0.1h-6.9c-0.9,0-1.6,0-2.2,0.1c-0.6,0.1-1,0.3-1.3,0.6c-0.3,0.3-0.4,0.6-0.6,1
				C177,14.5,177,19.9,177,20.5z"/>
			<path class="st8" d="M291.7,14.5v15.8h-5.1v-5.7h-15.1v5.7h-5.1V14.5c0-2.2,0.6-3.8,1.9-4.8c1.2-1,3.2-1.6,6-1.6h9.7
				c2.8,0,4.8,0.6,6,1.6C291,10.7,291.7,12.3,291.7,14.5z M271.2,20.5h15.2c0-0.6,0-6-0.1-6.4c-0.1-0.4-0.3-0.7-0.6-1
				c-0.3-0.3-0.7-0.4-1.3-0.6c-0.6-0.1-1.3-0.1-2.2-0.1h-6.9c-0.9,0-1.6,0-2.2,0.1s-1,0.3-1.3,0.6c-0.3,0.3-0.4,0.6-0.6,1
				C271.2,14.5,271.2,19.9,271.2,20.5z"/>
			<path class="st8" d="M227.1,8.1h5.1v15.8c0,2.2-0.6,3.8-1.8,4.8c-1.2,1-3.1,1.6-5.7,1.6h-9.4c-2.6,0-4.5-0.6-5.7-1.6
				c-1.2-1-1.8-2.6-1.8-4.8V8.1h5.7v14.5c0,0.6,0,1,0.1,1.5c0.1,0.4,0.3,0.7,0.6,1c0.3,0.3,0.6,0.4,1.2,0.6c0.4,0.1,0.6,0.1,1.3,0.1
				h6.9c0.7,0,1.3,0,1.9-0.1c0.4-0.1,0.9-0.3,1.2-0.6c0.3-0.3,0.4-0.6,0.6-1c0.1-0.4,0.1-0.9,0.1-1.5V8.1H227.1z"/>
			<path class="st8" d="M303.6,8.1l5.6,15.8l4.5-15.8h10v22.3h-6.3V10.8l-6,19.6h-4.5l-6-18.8v18.6h-6.3V8.1H303.6z"/>
			<path class="st8" d="M109.3,21v-3.5H89.2v0.1l0,0l0,0c0-0.6,0-3.1,0.1-3.5c0.1-0.4,0.3-0.7,0.6-1c0.3-0.3,0.7-0.4,1.2-0.6
				c0.4-0.1,1.2-0.1,2.1-0.1h16.1V8.2H92c-2.8,0-4.8,0.6-6.2,1.6c-1.3,1-1.9,3.7-1.9,5.9v8.5c0,2.2,0.6,3.8,1.9,4.8
				c1.3,1,2.6,1.6,5.4,1.6h17.9v-4.4H93c-0.9,0-1.5,0-2.1-0.1c-0.4-0.1-0.9-0.3-1.2-0.6c-0.3-0.3-0.7-1.2-0.7-2.1c0-0.4,0-1.9,0-2.5
				v-0.1l0,0v0.3L109.3,21L109.3,21z"/>
			<rect x="200.7" y="8.4" class="st2" width="3.4" height="22"/>
		</g>
		<g>
			<g>
				<path class="st8" d="M0,19.6V0h20.5c3.2,0,6.3,0.7,9.1,2.3c4.2,2.5,7.3,6.2,9.2,11c0.7,1.9,1.2,4,1.2,6.2V40
					c-5.1,0-10.4,0-15.5,0c-11.9,0-17.3-2.5-22-11.1C0.7,25.9,0,22.9,0,19.6z M22,14.9c0-2.8,0-5.1,0-7.5c-6.3,0-12.3,0-18.3,0
					c0,2.6,0,5.4,0,7.6c0,0,6,0,6,0.1c0,4-0.1,8.2,0,11.7c0.1,4.2,2.3,6.3,6.6,6.3c3.2,0.1,6.7,0,10,0c3.5,0,5.7-1.9,6-5.1
					c0.3-6.9,0.1-13.8,0.1-20.8c-2.3,0-4.2,0-6.6,0c0,4.8-0.1,9.5,0,14.1c0.1,2.8-1,3.7-3.7,3.7c-5.7,0-5.7,0.1-5.7-5.7
					c0-1.3-0.1-2.9,0-4.4C18.3,14.9,20.2,14.9,22,14.9z"/>
			</g>
		</g>
	</g>
</g>
</svg>
